<?xml version="1.0" standalone="no"?>
<!DOCTYPE svg PUBLIC "-//W3C//DTD SVG 20010904//EN"
 "http://www.w3.org/TR/2001/REC-SVG-20010904/DTD/svg10.dtd">
<svg version="1.0" xmlns="http://www.w3.org/2000/svg"
 width="772.000000pt" height="1280.000000pt" viewBox="0 0 772.000000 1280.000000"
 preserveAspectRatio="xMidYMid meet">
<g transform="translate(0.000000,1280.000000) scale(0.100000,-0.100000)"
fill="#000000" stroke="none">
<path d="M3520 12776 c-127 -30 -221 -62 -302 -102 -66 -33 -70 -34 -196 -34
-694 0 -1164 -493 -1128 -1183 17 -328 132 -613 430 -1067 52 -80 91 -149 87
-153 -5 -5 -57 1 -117 12 -429 81 -808 62 -1144 -55 -452 -157 -821 -459
-1004 -822 -67 -133 -100 -240 -131 -426 -33 -197 15 -455 130 -691 l53 -110
5 -120 c28 -648 493 -1088 1112 -1051 367 22 722 176 1090 471 172 138 454
433 771 804 111 130 153 167 140 124 -2 -10 -14 -49 -25 -88 -87 -303 -209
-835 -240 -1050 -134 -920 203 -1650 837 -1816 114 -30 284 -36 412 -15 85 15
104 15 111 4 5 -7 43 -73 86 -147 43 -73 131 -210 195 -305 364 -531 430 -640
593 -971 367 -744 612 -1603 734 -2570 44 -349 71 -736 71 -1023 l0 -142 208
2 207 3 -3 220 c-12 909 -182 1911 -467 2760 -113 335 -246 651 -404 960 -128
252 -215 399 -355 606 -285 420 -360 534 -425 648 -39 69 -71 128 -71 132 0 5
19 21 43 37 33 23 61 31 133 41 431 54 772 297 968 688 56 112 99 241 128 385
20 97 23 143 22 323 0 218 -11 310 -56 495 -44 183 -137 395 -248 567 -23 36
-4 43 80 27 229 -44 510 -56 712 -29 658 87 1079 451 1138 983 23 208 -38 472
-161 698 -34 61 -39 79 -39 135 0 88 -24 236 -55 344 -115 396 -432 713 -848
850 -496 162 -1071 76 -1579 -236 -53 -32 -102 -59 -109 -59 -8 0 -10 13 -6
43 88 609 -71 1177 -433 1551 -117 121 -196 182 -320 245 -222 113 -444 151
-630 107z m452 -3334 c2 -16 2 -34 0 -40 -6 -19 -40 -14 -64 10 l-21 21 23 19
c33 27 57 23 62 -10z m-242 -80 c0 -33 -25 -72 -46 -72 -14 0 -34 38 -34 66 0
15 32 32 63 33 12 1 17 -7 17 -27z m270 -102 c0 -11 -7 -20 -15 -20 -15 0 -21
21 -8 33 12 13 23 7 23 -13z"/>
</g>
</svg>
